#!OML:ASF H:\Terrain\Patient Classification 1\Walking\steve\steve.ASF
:FULLY-SPECIFIED
:DEGREES
182
root 6.29401 15.9512 -16.7555 6.1848 -4.84605 -4.44401
lowerback -0.572666 5.06945 6.83842
upperback -1.87758 6.80064 1.87422
thorax -1.05989 3.32336 -1.85609
lowerneck -11.9094 -1.149 -1.33295
upperneck 18.7378 -1.23779 -0.292901
head 7.74794 -0.704174 0.00106607
rclavicle -6.90777e-014 -7.15625e-015
rhumerus -7.09627 -0.0148807 -82.6119
rradius 33.3661
rwrist -6.88626
rhand -21.2126 -42.9277
rfingers 7.12502
rthumb 5.16911 -72.8447
lclavicle -6.90777e-014 -7.15625e-015
lhumerus -56.864 2.73285 86.8002
lradius 21.3669
lwrist 8.22249
lhand -16.9141 -9.9745
lfingers 7.12502
lthumb 9.31822 19.7996
rfemur -4.11206 -1.71353 27.6448
rtibia 23.7461
rfoot -12.9845 22.8136
rtoes 11.6259
lfemur -35.703 3.66993 -14.4494
ltibia 21.464
lfoot -15.4709 8.20221
ltoes -15.3657
183
root 6.31075 15.9412 -16.6034 6.24194 -4.90777 -4.79368
lowerback -0.623573 5.05625 6.99364
upperback -1.57931 6.76165 1.97372
thorax -0.720505 3.31861 -1.8166
lowerneck -13.0889 -1.07695 -1.3571
upperneck 18.918 -1.15683 -0.0893733
head 8.02061 -0.648416 0.0732065
rclavicle 2.045e-014 2.5842e-014
rhumerus -5.81834 0.478674 -82.3979
rradius 33.3659
rwrist -7.32821
rhand -20.8762 -41.8751
rfingers 7.12502
rthumb 5.49383 -71.7839
lclavicle 2.045e-014 2.5842e-014
lhumerus -56.9408 3.13688 86.5724
lradius 21.3083
lwrist 8.55227
lhand -17.3265 -10.5996
lfingers 7.12502
lthumb 8.92026 19.1919
rfemur -3.33643 -2.0148 27.8157
rtibia 23.2358
rfoot -12.291 23.4915
rtoes 12.3747
lfemur -35.7144 2.57077 -13.3868
ltibia 19.4349
lfoot -15.9636 8.79568
ltoes -17.2954
184
root 6.32681 15.9332 -16.4507 6.41103 -5.03119 -4.79973
lowerback -0.901661 5.06957 6.83794
upperback -1.44911 6.74625 1.94446
thorax -0.445232 3.32323 -1.72779
lowerneck -13.2272 -0.988769 -1.56235
upperneck 18.6025 -1.08784 0.388085
head 7.94385 -0.582604 0.272677
rclavicle -4.60187e-014 1.03368e-014
rhumerus -4.94197 0.770083 -82.2973
rradius 33.4298
rwrist -7.37917
rhand -20.5868 -40.8679
rfingers 7.12502
rthumb 5.77333 -70.7692
lclavicle -4.60187e-014 1.03368e-014
lhumerus -57.3752 3.20858 86.5889
lradius 21.4302
lwrist 9.38111
lhand -17.6489 -10.2347
lfingers 7.12502
lthumb 8.60917 19.5698
rfemur -2.75451 -2.39913 27.5813
rtibia 22.8463
rfoot -11.344 24.238
rtoes 14.7866
lfemur -35.7446 1.92666 -12.9078
ltibia 17.5405
lfoot -16.1511 9.05484
ltoes -18.0841
185
root 6.33698 15.9107 -16.3147 6.73716 -5.13653 -5.01075
lowerback -1.12541 5.13262 6.77696
upperback -1.42319 6.80916 2.04261
thorax -0.307329 3.35999 -1.56969
lowerneck -14.1317 -1.12789 -1.44948
upperneck 19.114 -1.20638 -0.0106416
head 8.27583 -0.671024 0.102914
rclavicle -6.38596e-014 -2.5842e-014
rhumerus -4.15009 1.05202 -82.0365
rradius 33.477
rwrist -7.54176
rhand -20.794 -40.0389
rfingers 7.12502
rthumb 5.57321 -69.9456
lclavicle -6.38596e-014 -2.5842e-014
lhumerus -57.9468 3.39011 86.6184
lradius 21.6777
lwrist 10.1695
lhand -17.2666 -9.762
lfingers 7.12502
lthumb 8.97805 20.027
rfemur -2.27127 -2.22819 27.6829
rtibia 22.2797
rfoot -11.0742 24.2758
rtoes 14.7746
lfemur -36.0203 1.6975 -12.393
ltibia 15.8052
lfoot -15.5367 9.58388
ltoes -20.6667
186
root 6.34144 15.8711 -16.2033 7.03979 -5.2542 -5.96474
lowerback -0.698802 5.2054 7.36338
upperback -1.6347 6.95894 2.31109
thorax -0.720116 3.41334 -1.6631
lowerneck -13.8995 -1.0553 -1.51462
upperneck 18.8639 -1.12124 0.111208
head 8.15055 -0.622619 0.165638
rclavicle -1.04362e-014 -7.95139e-015
rhumerus -3.69616 1.19604 -81.8941
rradius 33.6231
rwrist -7.60235
rhand -20.8337 -39.5738
rfingers 7.12502
rthumb 5.53486 -69.4815
lclavicle -1.04362e-014 -7.95139e-015
lhumerus -58.6314 3.883 86.086
lradius 21.733
lwrist 10.417
lhand -16.7282 -9.22149
lfingers 7.12502
lthumb 9.4976 20.5445
rfemur -1.8568 -1.41222 28.733
rtibia 21.7808
rfoot -11.2632 23.6805
rtoes 13.6301
lfemur -36.3972 0.419893 -10.2765
ltibia 14.1849
lfoot -15.3556 10.9763
ltoes -21.6847
187
root 6.37842 15.8854 -15.9961 6.6028 -5.56153 -5.32308
lowerback -1.07787 5.27963 7.01539
upperback -1.41914 7.00672 2.00826
thorax -0.282926 3.45717 -1.73049
lowerneck -13.1938 -0.942716 -1.53972
upperneck 18.379 -1.0362 0.419618
head 7.86311 -0.553117 0.285193
rclavicle -1.35174e-014 -1.63003e-014
rhumerus -3.53254 1.08052 -81.9449
rradius 33.8316
rwrist -7.43978
rhand -20.3835 -39.5713
rfingers 7.12502
rthumb 5.96954 -69.4672
lclavicle -1.35174e-014 -1.63003e-014
lhumerus -59.251 4.27982 85.2966
lradius 21.4412
lwrist 10.2581
lhand -16.6116 -9.41288
lfingers 7.12502
lthumb 9.61013 20.3479
rfemur -0.320974 -2.58947 27.4118
rtibia 21.3115
rfoot -10.1119 25.3451
rtoes 15.5073
lfemur -35.4211 -1.3882 -10.048
ltibia 12.6622
lfoot -15.9949 12.439
ltoes -22.1286
